<?xml version="1.0" encoding="utf-8"?>
<!-- Generator: Adobe Illustrator 24.1.2, SVG Export Plug-In . SVG Version: 6.00 Build 0)  -->
<svg version="1.1" id="Layer_1" xmlns="http://www.w3.org/2000/svg" xmlns:xlink="http://www.w3.org/1999/xlink" x="0px" y="0px"
	 viewBox="0 0 256 256" style="enable-background:new 0 0 256 256;" xml:space="preserve">
<style type="text/css">
	.st0{fill:#4B74E8;}
	.st1{fill:#FFFFFF;}
</style>
<rect class="st0" width="256" height="256"/>
<g>
	<g>
		<path class="st1" d="M104.9,163.8c-3.7,6.6-8.2,13.9-13.9,22.3c-5.9,8.8-11.9,16.9-17.9,24.4L59.4,207c3.9-7,8.3-15.7,13.3-26.1
			c-0.4,0-0.8,0-1.2,0c-3.3,0-6.7-0.4-10-1.2c-10.8-2.6-19.9-9.3-25.5-18.8c-5.8-9.4-7.4-20.5-4.8-31.2c4.6-18.6,21-31.5,40.1-31.5
			c3.3,0,6.7,0.4,9.9,1.2c1.6,0.4,2.9,0.9,4.4,1.4c-1.1,16.6,2.7,32.9,11.3,47.3c2.8,4.5,6.1,8.8,9.8,12.9
			C106.2,161.9,105.6,162.9,104.9,163.8z"/>
	</g>
	<g>
		<path class="st1" d="M224.2,120.9c-1.9,7.8-5.3,14.9-9.7,21.1c-4,7.3-8.9,15.3-14.6,24c-1.8,2.9-3.9,5.8-5.8,8.8
			c-8.8,13.1-17.7,25.1-26.4,36l-20.4-5c4.7-8.5,9.8-18.7,15.7-30.5c1.2-2.7,2.6-5.3,3.9-8.1c-0.6,0-1.2,0.1-1.8,0.1
			c-5,0-9.9-0.6-14.7-1.8c-11.4-2.8-21.4-8.7-29.4-17c-3-3.2-5.9-6.7-8.3-10.6c-6.8-11.4-9.7-24.5-8.4-37.5c0.3-2.9,0.7-5.8,1.5-8.7
			c6.7-27.3,31-46.4,59.2-46.4c4.9,0,9.8,0.6,14.7,1.8C212.3,55.2,232.3,88.3,224.2,120.9z"/>
	</g>
</g>
</svg>
